<svg width="41" height="15" viewBox="0 0 41 15" fill="none" xmlns="http://www.w3.org/2000/svg"><path d="M37.6602 14.5566H0L2.94727 0H40.6074L37.6602 14.5566ZM6.66016 4.24316V10.0781H7.16113L10.7969 5.44336V10.0781H11.4336V4.24316H10.9326L7.29688 8.86914V4.24316H6.66016ZM15.2061 4.24316C13.6442 4.24327 12.4951 5.48255 12.4951 7.16895C12.4952 8.83125 13.6522 10.078 15.2061 10.0781C16.435 10.0781 17.4024 9.33447 17.7988 8.14355H17.1172C16.7921 8.9588 16.0784 9.47069 15.1904 9.4707C14.0013 9.4707 13.1291 8.48772 13.1289 7.16113C13.1289 5.82635 13.9932 4.85059 15.1904 4.85059C16.0784 4.8506 16.7922 5.37048 17.1094 6.17773H17.7988C17.4024 4.98682 16.4271 4.24316 15.2061 4.24316ZM18.3291 10.0781H19.0225L19.7246 8.48633H22.7852L23.4863 10.0781H24.1641L21.5977 4.24316H20.9043L18.3291 10.0781ZM24.6943 10.0781H25.3076V8.21973H26.9004C27.9803 8.21972 28.9373 7.33596 28.9375 6.22754C28.9375 5.07728 28.034 4.24317 26.9004 4.24316H24.6943V10.0781ZM29.4678 4.86816H31.5215V10.0781H32.1973V4.86816H34.2422V4.24316H29.4678V4.86816ZM22.5137 7.87793H19.9951L21.2549 5.02734L22.5137 7.87793ZM26.9004 4.86816C27.72 4.86817 28.3252 5.44403 28.3252 6.22754C28.325 6.99421 27.6892 7.59375 26.9004 7.59375H25.3076V4.86816H26.9004Z" fill="#7E7F7F"/></svg>
