<svg width="19" height="20" viewBox="0 0 19 20" fill="none" xmlns="http://www.w3.org/2000/svg"><path d="M18.457 7.97363C18.5945 8.58027 18.6582 9.16519 18.6582 9.9668C18.6582 12.9351 17.6214 15.4378 15.8232 17.1387C14.2473 18.6335 12.0897 19.5 9.51953 19.5C5.79632 19.5 2.59083 17.312 1.02539 14.127L4.10352 11.6787C4.86509 14.0295 7.00215 15.7305 9.51953 15.7305C10.9368 15.7305 12.0155 15.329 12.8193 14.7549C14.0886 13.8449 14.6599 12.491 14.7656 11.5918H9.51953V7.97363H18.457ZM9.51953 0C12.0897 2.38815e-05 14.2367 0.964436 15.8867 2.53516L13.2002 5.22168C12.5127 4.56089 11.3069 3.77054 9.51953 3.77051C7.00213 3.77051 4.86589 5.47143 4.09375 7.82227C3.90342 8.42881 3.78616 9.07849 3.78613 9.75C3.78613 10.4217 3.90255 11.072 4.10352 11.6787L1.01562 14.127C0.370409 12.8053 0 11.3208 0 9.75C3.55862e-05 8.17935 0.370512 6.69557 1.01562 5.37402C2.58107 2.18902 5.79632 0 9.51953 0Z" fill="#000508"/></svg>