<svg width="26" height="22" viewBox="0 0 26 22" fill="none" xmlns="http://www.w3.org/2000/svg"><path d="M0.388316 9.90464C3.01857 8.45587 5.95463 7.24664 8.69794 6.03127C13.4175 4.04058 18.1558 2.08439 22.9419 0.263203C23.8731 -0.0470909 25.5463 -0.350503 25.7104 1.02944C25.6205 2.98282 25.2509 4.92475 24.9975 6.86669C24.3541 11.1372 23.6105 15.3931 22.8853 19.6495C22.6354 21.0673 20.8594 21.8013 19.7229 20.8939C16.9918 19.0492 14.2397 17.2223 11.5434 15.3347C10.6602 14.4373 11.4792 13.1485 12.268 12.5076C14.5175 10.2908 16.903 8.40736 19.0349 6.07598C19.61 4.68734 17.9108 5.85764 17.3504 6.21626C14.2709 8.33839 11.2667 10.5901 8.01998 12.4551C6.36154 13.3681 4.4286 12.5879 2.77092 12.0785C1.28462 11.4631 -0.893396 10.8431 0.388166 9.90482L0.388316 9.90464Z" fill="#000508"/></svg>
